<?xml version="1.0" standalone="no"?>
<!DOCTYPE svg PUBLIC "-//W3C//DTD SVG 20010904//EN"
 "http://www.w3.org/TR/2001/REC-SVG-20010904/DTD/svg10.dtd">
<svg version="1.0" xmlns="http://www.w3.org/2000/svg"
 width="100.000000pt" height="100.000000pt" viewBox="0 0 100.000000 100.000000"
 preserveAspectRatio="xMidYMid meet">
<metadata>
Created by potrace 1.11, written by Peter Selinger 2001-2013
</metadata>
<g transform="translate(0.000000,100.000000) scale(0.100000,-0.100000)"
fill="#000000" stroke="none">
<path d="M580 691 c-19 -10 -43 -28 -54 -40 -13 -14 -23 -18 -35 -12 -78 42
-174 -10 -183 -99 -2 -26 -8 -34 -25 -35 -33 -2 -72 -33 -90 -70 -23 -48 -5
-108 40 -135 29 -18 51 -20 252 -20 121 0 229 3 241 6 26 7 56 57 52 87 -1 12
8 40 21 61 51 82 34 178 -41 239 -49 39 -125 47 -178 18z"/>
</g>
</svg>
